{
  "accessors": [
    {
      "bufferView": 2,
      "componentType": 5126,
      "count": 1645,
      "max": [
        0.09569195657968521,
        0.2995166480541229,
        0.06551220268011093
      ],
      "min": [
        -0.035540871322155,
        0.14768719673156738,
        -0.13752679526805878
      ],
      "type": "VEC3"
    },
    {
      "bufferView": 2,
      "byteOffset": 19740,
      "componentType": 5126,
      "count": 1645,
      "max": [
        0.9903404116630554,
        0.9997113347053528,
        0.9990562200546265
      ],
      "min": [
        -0.998323380947113,
        -0.999963641166687,
        -0.9986057281494141
      ],
      "type": "VEC3"
    },
    {
      "bufferView": 1,
      "componentType": 5126,
      "count": 1645,
      "max": [
        0.999736487865448,
        0.9997875094413757
      ],
      "min": [
        0.00044083595275878906,
        0.0006614327430725098
      ],
      "type": "VEC2"
    },
    {
      "bufferView": 1,
      "byteOffset": 13160,
      "componentType": 5126,
      "count": 1645,
      "max": [
        0.999736487865448,
        0.9997875094413757
      ],
      "min": [
        0.00044083595275878906,
        0.0006614327430725098
      ],
      "type": "VEC2"
    },
    {
      "bufferView": 1,
      "byteOffset": 26320,
      "componentType": 5126,
      "count": 1645,
      "max": [
        0.999736487865448,
        0.9997875094413757
      ],
      "min": [
        0.00044083595275878906,
        0.0006614327430725098
      ],
      "type": "VEC2"
    },
    {
      "bufferView": 0,
      "componentType": 5125,
      "count": 4140,
      "type": "SCALAR"
    },
    {
      "bufferView": 2,
      "byteOffset": 39480,
      "componentType": 5126,
      "count": 692,
      "max": [
        -0.03462870419025421,
        0.21136894822120667,
        0.02547241561114788
      ],
      "min": [
        -0.1479353904724121,
        0.1023610383272171,
        -0.09734814614057541
      ],
      "type": "VEC3"
    },
    {
      "bufferView": 2,
      "byteOffset": 47784,
      "componentType": 5126,
      "count": 692,
      "max": [
        0.9968106746673584,
        0.9988581538200378,
        0.9884501695632935
      ],
      "min": [
        -0.9935335516929626,
        -0.994799792766571,
        -0.994353711605072
      ],
      "type": "VEC3"
    },
    {
      "bufferView": 1,
      "byteOffset": 39480,
      "componentType": 5126,
      "count": 692,
      "max": [
        0.9997327923774719,
        0.9997035264968872
      ],
      "min": [
        0.002004683017730713,
        0.018528878688812256
      ],
      "type": "VEC2"
    },
    {
      "bufferView": 1,
      "byteOffset": 45016,
      "componentType": 5126,
      "count": 692,
      "max": [
        0.9997327923774719,
        0.9997035264968872
      ],
      "min": [
        0.002004683017730713,
        0.018528878688812256
      ],
      "type": "VEC2"
    },
    {
      "bufferView": 1,
      "byteOffset": 50552,
      "componentType": 5126,
      "count": 692,
      "max": [
        0.9997327923774719,
        0.9997035264968872
      ],
      "min": [
        0.002004683017730713,
        0.018528878688812256
      ],
      "type": "VEC2"
    },
    {
      "bufferView": 0,
      "byteOffset": 16560,
      "componentType": 5125,
      "count": 1404,
      "type": "SCALAR"
    },
    {
      "bufferView": 2,
      "byteOffset": 56088,
      "componentType": 5126,
      "count": 747,
      "max": [
        0.07735732197761536,
        0.2261609584093094,
        0.049586471170186996
      ],
      "min": [
        -0.11495041847229004,
        -0.0011921882396563888,
        -0.1688622087240219
      ],
      "type": "VEC3"
    },
    {
      "bufferView": 2,
      "byteOffset": 65052,
      "componentType": 5126,
      "count": 747,
      "max": [
        0.9902914762496948,
        0.9974482655525208,
        0.9933768510818481
      ],
      "min": [
        -0.9977741837501526,
        -0.9998630285263062,
        -0.9979506134986877
      ],
      "type": "VEC3"
    },
    {
      "bufferView": 1,
      "byteOffset": 56088,
      "componentType": 5126,
      "count": 747,
      "max": [
        0.9997522830963135,
        0.999763548374176
      ],
      "min": [
        0.001867532730102539,
        0.004166662693023682
      ],
      "type": "VEC2"
    },
    {
      "bufferView": 1,
      "byteOffset": 62064,
      "componentType": 5126,
      "count": 747,
      "max": [
        0.9997522830963135,
        0.999763548374176
      ],
      "min": [
        0.001867532730102539,
        0.004166662693023682
      ],
      "type": "VEC2"
    },
    {
      "bufferView": 1,
      "byteOffset": 68040,
      "componentType": 5126,
      "count": 747,
      "max": [
        0.9997522830963135,
        0.999763548374176
      ],
      "min": [
        0.001867532730102539,
        0.004166662693023682
      ],
      "type": "VEC2"
    },
    {
      "bufferView": 0,
      "byteOffset": 22176,
      "componentType": 5125,
      "count": 2226,
      "type": "SCALAR"
    },
    {
      "bufferView": 2,
      "byteOffset": 74016,
      "componentType": 5126,
      "count": 1854,
      "max": [
        0.08539959043264389,
        0.22166280448436737,
        0.036376506090164185
      ],
      "min": [
        -0.06712273508310318,
        0.013811244629323483,
        -0.17140313982963562
      ],
      "type": "VEC3"
    },
    {
      "bufferView": 2,
      "byteOffset": 96264,
      "componentType": 5126,
      "count": 1854,
      "max": [
        0.9982515573501587,
        0.995978057384491,
        0.9961236119270325
      ],
      "min": [
        -0.9988033771514893,
        -0.9988588690757751,
        -0.9999488592147827
      ],
      "type": "VEC3"
    },
    {
      "bufferView": 1,
      "byteOffset": 74016,
      "componentType": 5126,
      "count": 1854,
      "max": [
        0.9998123049736023,
        0.9998307228088379
      ],
      "min": [
        0.0013393163681030273,
        0.0008386969566345215
      ],
      "type": "VEC2"
    },
    {
      "bufferView": 1,
      "byteOffset": 88848,
      "componentType": 5126,
      "count": 1854,
      "max": [
        0.9998123049736023,
        0.9998307228088379
      ],
      "min": [
        0.0013393163681030273,
        0.0008386969566345215
      ],
      "type": "VEC2"
    },
    {
      "bufferView": 1,
      "byteOffset": 103680,
      "componentType": 5126,
      "count": 1854,
      "max": [
        0.9998123049736023,
        0.9998307228088379
      ],
      "min": [
        0.0013393163681030273,
        0.0008386969566345215
      ],
      "type": "VEC2"
    },
    {
      "bufferView": 0,
      "byteOffset": 31080,
      "componentType": 5125,
      "count": 5292,
      "type": "SCALAR"
    }
  ],
  "asset": {
    "extras": {
      "author": "eric3dee (https://sketchfab.com/eric3dee)",
      "license": "CC-BY-4.0 (http://creativecommons.org/licenses/by/4.0/)",
      "source": "https://sketchfab.com/3d-models/lopoly-ryu-53858469ed1a4cbab3157cda87c3245b",
      "title": "LoPoly Ryu"
    },
    "generator": "Sketchfab-12.68.0",
    "version": "2.0"
  },
  "bufferViews": [
    {
      "buffer": 0,
      "byteLength": 52248,
      "name": "floatBufferViews",
      "target": 34963
    },
    {
      "buffer": 0,
      "byteLength": 118512,
      "byteOffset": 52248,
      "byteStride": 8,
      "name": "floatBufferViews",
      "target": 34962
    },
    {
      "buffer": 0,
      "byteLength": 118512,
      "byteOffset": 170760,
      "byteStride": 12,
      "name": "floatBufferViews",
      "target": 34962
    }
  ],
  "buffers": [
    {
      "byteLength": 289272,
      "uri": "scene.bin"
    }
  ],
  "images": [
    {
      "uri": "textures/HEAD_baseColor.png"
    },
    {
      "uri": "textures/HEAD_metallicRoughness.png"
    },
    {
      "uri": "textures/HANDS_baseColor.png"
    },
    {
      "uri": "textures/HANDS_metallicRoughness.png"
    },
    {
      "uri": "textures/FEET_ARMS_baseColor.png"
    },
    {
      "uri": "textures/FEET_ARMS_metallicRoughness.png"
    },
    {
      "uri": "textures/CLOTHES_baseColor.png"
    },
    {
      "uri": "textures/CLOTHES_metallicRoughness.png"
    }
  ],
  "materials": [
    {
      "emissiveFactor": [
        0.1,
        0.1,
        0.1
      ],
      "emissiveTexture": {
        "index": 0
      },
      "name": "HEAD",
      "pbrMetallicRoughness": {
        "baseColorTexture": {
          "index": 0
        },
        "metallicFactor": 0.0,
        "metallicRoughnessTexture": {
          "index": 1
        }
      }
    },
    {
      "emissiveFactor": [
        0.1,
        0.1,
        0.1
      ],
      "emissiveTexture": {
        "index": 2
      },
      "name": "HANDS",
      "pbrMetallicRoughness": {
        "baseColorTexture": {
          "index": 2
        },
        "metallicRoughnessTexture": {
          "index": 3
        }
      }
    },
    {
      "emissiveFactor": [
        0.18,
        0.18,
        0.18
      ],
      "emissiveTexture": {
        "index": 4
      },
      "name": "FEET_ARMS",
      "pbrMetallicRoughness": {
        "baseColorTexture": {
          "index": 4
        },
        "metallicRoughnessTexture": {
          "index": 5
        }
      }
    },
    {
      "emissiveFactor": [
        0.1,
        0.1,
        0.1
      ],
      "emissiveTexture": {
        "index": 6
      },
      "name": "CLOTHES",
      "pbrMetallicRoughness": {
        "baseColorTexture": {
          "index": 6
        },
        "metallicRoughnessTexture": {
          "index": 7
        }
      }
    }
  ],
  "meshes": [
    {
      "name": "H_ed_Band_combined_combined_uv",
      "primitives": [
        {
          "attributes": {
            "NORMAL": 1,
            "POSITION": 0,
            "TEXCOORD_0": 2,
            "TEXCOORD_1": 3,
            "TEXCOORD_2": 4
          },
          "indices": 5,
          "material": 0,
          "mode": 4
        }
      ]
    },
    {
      "name": "RYUDecim8_uv10_combined_uv",
      "primitives": [
        {
          "attributes": {
            "NORMAL": 7,
            "POSITION": 6,
            "TEXCOORD_0": 8,
            "TEXCOORD_1": 9,
            "TEXCOORD_2": 10
          },
          "indices": 11,
          "material": 1,
          "mode": 4
        }
      ]
    },
    {
      "name": "RYUDecim8_uv12_combined_uv",
      "primitives": [
        {
          "attributes": {
            "NORMAL": 13,
            "POSITION": 12,
            "TEXCOORD_0": 14,
            "TEXCOORD_1": 15,
            "TEXCOORD_2": 16
          },
          "indices": 17,
          "material": 2,
          "mode": 4
        }
      ]
    },
    {
      "name": "RYUDecim8_uv17_combined_uv",
      "primitives": [
        {
          "attributes": {
            "NORMAL": 19,
            "POSITION": 18,
            "TEXCOORD_0": 20,
            "TEXCOORD_1": 21,
            "TEXCOORD_2": 22
          },
          "indices": 23,
          "material": 3,
          "mode": 4
        }
      ]
    }
  ],
  "nodes": [
    {
      "children": [
        1
      ],
      "matrix": [
        1.0,
        0.0,
        0.0,
        0.0,
        0.0,
        2.220446049250313e-16,
        -1.0,
        0.0,
        0.0,
        1.0,
        2.220446049250313e-16,
        0.0,
        0.0,
        0.0,
        0.0,
        1.0
      ],
      "name": "Sketchfab_model"
    },
    {
      "children": [
        2
      ],
      "matrix": [
        1.0,
        0.0,
        0.0,
        0.0,
        0.0,
        2.220446049250313e-16,
        1.0,
        0.0,
        0.0,
        -1.0,
        2.220446049250313e-16,
        0.0,
        0.0,
        0.0,
        0.0,
        1.0
      ],
      "name": "USDRoot"
    },
    {
      "children": [
        3
      ],
      "name": "RYU_UV2"
    },
    {
      "children": [
        4
      ],
      "name": "Geom"
    },
    {
      "children": [
        5
      ],
      "name": "RYU_UV2"
    },
    {
      "children": [
        6,
        7,
        8,
        9
      ],
      "name": "Geom"
    },
    {
      "mesh": 0,
      "name": "H_ed_Band_combined_combined_uv"
    },
    {
      "mesh": 1,
      "name": "RYUDecim8_uv10_combined_uv"
    },
    {
      "mesh": 2,
      "name": "RYUDecim8_uv12_combined_uv"
    },
    {
      "mesh": 3,
      "name": "RYUDecim8_uv17_combined_uv"
    }
  ],
  "samplers": [
    {
      "magFilter": 9729,
      "minFilter": 9987,
      "wrapS": 10497,
      "wrapT": 10497
    }
  ],
  "scene": 0,
  "scenes": [
    {
      "name": "Sketchfab_Scene",
      "nodes": [
        0
      ]
    }
  ],
  "textures": [
    {
      "sampler": 0,
      "source": 0
    },
    {
      "sampler": 0,
      "source": 1
    },
    {
      "sampler": 0,
      "source": 2
    },
    {
      "sampler": 0,
      "source": 3
    },
    {
      "sampler": 0,
      "source": 4
    },
    {
      "sampler": 0,
      "source": 5
    },
    {
      "sampler": 0,
      "source": 6
    },
    {
      "sampler": 0,
      "source": 7
    }
  ]
}
